# MagicaVoxel @ Ephtracy

# group
o 

# material
mtllib Blizard.mtl
usemtl palette

# normals
vn -1 0 0
vn 1 0 0
vn 0 0 1
vn 0 0 -1
vn 0 -1 0
vn 0 1 0

# texcoords
vt 0.306641 0.5
vt 0.310547 0.5
vt 0.314453 0.5
vt 0.447266 0.5
vt 0.962891 0.5

# verts
v -2 0.1 0
v -2 0.1 -0.1
v -2 0.3 0
v -2 0.3 -0.1
v -1.9 0.1 0.1
v -1.9 0.1 0
v -1.9 0.1 -0.1
v -1.9 0.1 -0.2
v -1.9 0.2 0.1
v -1.9 0.2 0
v -1.9 0.2 -0.1
v -1.9 0.2 -0.2
v -1.9 0.3 0
v -1.9 0.3 -0.1
v -1.9 0.4 0
v -1.9 0.4 -0.1
v -1.8 0 0
v -1.8 0 -0.1
v -1.8 0.1 0
v -1.8 0.1 -0.1
v -1.8 0.2 0.1
v -1.8 0.2 0
v -1.8 0.2 -0.1
v -1.8 0.2 -0.2
v -1.8 0.3 0.1
v -1.8 0.3 0
v -1.8 0.3 -0.1
v -1.8 0.3 -0.2
v -1.7 0.3 0.1
v -1.7 0.3 0
v -1.7 0.3 -0.1
v -1.7 0.3 -0.2
v -1.7 0.4 0.1
v -1.7 0.4 0
v -1.7 0.4 -0.1
v -1.7 0.4 -0.2
v -1.7 0.5 0
v -1.7 0.5 -0.1
v -1.6 0.4 0.1
v -1.6 0.4 0
v -1.6 0.4 -0.1
v -1.6 0.4 -0.2
v -1.6 0.5 0.1
v -1.6 0.5 0
v -1.6 0.5 -0.1
v -1.6 0.5 -0.2
v -1.6 0.6 0
v -1.6 0.6 -0.1
v -1.5 0.2 0.2
v -1.5 0.2 0.1
v -1.5 0.2 -0.2
v -1.5 0.2 -0.3
v -1.5 0.3 0.2
v -1.5 0.3 0.1
v -1.5 0.3 -0.2
v -1.5 0.3 -0.3
v -1.4 0.1 0.2
v -1.4 0.1 0.1
v -1.4 0.1 -0.2
v -1.4 0.1 -0.3
v -1.4 0.2 0.2
v -1.4 0.2 0.1
v -1.4 0.2 -0.2
v -1.4 0.2 -0.3
v -1.4 0.3 0.2
v -1.4 0.3 0.1
v -1.4 0.3 -0.2
v -1.4 0.3 -0.3
v -1.4 0.4 0.2
v -1.4 0.4 0.1
v -1.4 0.4 -0.2
v -1.4 0.4 -0.3
v -1.3 0.2 0.3
v -1.3 0.2 0.2
v -1.3 0.2 -0.3
v -1.3 0.2 -0.4
v -1.3 0.3 0.3
v -1.3 0.3 0.2
v -1.3 0.3 -0.3
v -1.3 0.3 -0.4
v -0.4 0.2 0.3
v -0.4 0.2 0.2
v -0.4 0.2 -0.3
v -0.4 0.2 -0.4
v -0.4 0.3 0.3
v -0.4 0.3 0.2
v -0.4 0.3 -0.3
v -0.4 0.3 -0.4
v -0.0999999 0.5 0
v -0.0999999 0.5 -0.1
v -0.0999999 0.6 0
v -0.0999999 0.6 -0.1
v 0.2 0.1 0.2
v 0.2 0.1 0.1
v 0.2 0.1 -0.2
v 0.2 0.1 -0.3
v 0.2 0.2 0.2
v 0.2 0.2 0.1
v 0.2 0.2 -0.2
v 0.2 0.2 -0.3
v 0.2 0.3 0.2
v 0.2 0.3 0.1
v 0.2 0.3 -0.2
v 0.2 0.3 -0.3
v 0.2 0.4 0.2
v 0.2 0.4 0.1
v 0.2 0.4 0
v 0.2 0.4 -0.1
v 0.2 0.4 -0.2
v 0.2 0.4 -0.3
v 0.2 0.5 0.1
v 0.2 0.5 0
v 0.2 0.5 -0.1
v 0.2 0.5 -0.2
v 0.3 0.2 0.2
v 0.3 0.2 0.1
v 0.3 0.2 -0.2
v 0.3 0.2 -0.3
v 0.3 0.3 0.2
v 0.3 0.3 0.1
v 0.3 0.3 -0.2
v 0.3 0.3 -0.3
v 0.6 0.4 0
v 0.6 0.4 -0.1
v 0.6 0.5 0
v 0.6 0.5 -0.1
v 0.8 0.1 0.1
v 0.8 0.1 0
v 0.8 0.1 -0.1
v 0.8 0.1 -0.2
v 0.8 0.2 0.1
v 0.8 0.2 0
v 0.8 0.2 -0.1
v 0.8 0.2 -0.2
v 0.8 0.3 0.1
v 0.8 0.3 0
v 0.8 0.3 -0.1
v 0.8 0.3 -0.2
v 0.8 0.4 0.1
v 0.8 0.4 0
v 0.8 0.4 -0.1
v 0.8 0.4 -0.2
v 1 0 0
v 1 0 -0.1
v 1 0.1 0
v 1 0.1 -0.1
v 1 0.2 0.1
v 1 0.2 0
v 1 0.2 -0.1
v 1 0.2 -0.2
v 1 0.3 0.1
v 1 0.3 0
v 1 0.3 -0.1
v 1 0.3 -0.2
v 1.1 0.3 0
v 1.1 0.3 -0.1
v 1.1 0.4 0
v 1.1 0.4 -0.1
v 1.5 0.2 0
v 1.5 0.2 -0.1
v 1.5 0.3 0
v 1.5 0.3 -0.1
v 2 0.1 0
v 2 0.1 -0.1
v 2 0.2 0
v 2 0.2 -0.1
v -1.3 0.2 0.3
v -1.3 0.3 0.3
v -1.2 0.2 0.3
v -1.2 0.3 0.3
v -0.6 0.2 0.3
v -0.6 0.3 0.3
v -0.4 0.2 0.3
v -0.4 0.3 0.3
v -1.5 0.2 0.2
v -1.5 0.3 0.2
v -1.4 0.1 0.2
v -1.4 0.2 0.2
v -1.4 0.3 0.2
v -1.4 0.4 0.2
v -1.3 0.2 0.2
v -1.3 0.3 0.2
v -1.2 0.1 0.2
v -1.2 0.2 0.2
v -1.2 0.3 0.2
v -1.2 0.4 0.2
v -0.8 0.3 0.2
v -0.8 0.4 0.2
v -0.6 0.2 0.2
v -0.6 0.3 0.2
v -0.5 0.1 0.2
v -0.5 0.2 0.2
v -0.4 0.2 0.2
v -0.4 0.3 0.2
v 0.2 0.1 0.2
v 0.2 0.2 0.2
v 0.2 0.3 0.2
v 0.2 0.4 0.2
v 0.3 0.2 0.2
v 0.3 0.3 0.2
v -1.9 0.1 0.1
v -1.9 0.2 0.1
v -1.8 0.2 0.1
v -1.8 0.3 0.1
v -1.7 0.3 0.1
v -1.7 0.4 0.1
v -1.6 0.4 0.1
v -1.6 0.5 0.1
v -1.5 0.2 0.1
v -1.5 0.3 0.1
v -1.4 0.1 0.1
v -1.4 0.2 0.1
v -1.4 0.3 0.1
v -1.4 0.4 0.1
v -1.2 0.4 0.1
v -1.2 0.5 0.1
v -0.8 0.4 0.1
v -0.8 0.5 0.1
v 0.2 0.1 0.1
v 0.2 0.2 0.1
v 0.2 0.3 0.1
v 0.2 0.4 0.1
v 0.2 0.5 0.1
v 0.3 0.2 0.1
v 0.3 0.3 0.1
v 0.5 0.3 0.1
v 0.5 0.4 0.1
v 0.8 0.1 0.1
v 0.8 0.2 0.1
v 0.8 0.3 0.1
v 0.8 0.4 0.1
v 1 0.2 0.1
v 1 0.3 0.1
v -2 0.1 0
v -2 0.3 0
v -1.9 0.1 0
v -1.9 0.2 0
v -1.9 0.3 0
v -1.9 0.4 0
v -1.8 0 0
v -1.8 0.1 0
v -1.8 0.2 0
v -1.8 0.3 0
v -1.7 0.3 0
v -1.7 0.4 0
v -1.7 0.5 0
v -1.6 0.4 0
v -1.6 0.5 0
v -1.6 0.6 0
v -1.3 0.1 0
v -1.2 0 0
v -1.2 0.1 0
v -1.2 0.5 0
v -1.2 0.6 0
v -0.8 0.5 0
v -0.8 0.6 0
v -0.2 0.1 0
v -0.0999999 0 0
v -0.0999999 0.1 0
v -0.0999999 0.5 0
v -0.0999999 0.6 0
v 0.2 0.4 0
v 0.2 0.5 0
v 0.5 0.4 0
v 0.6 0 0
v 0.6 0.1 0
v 0.6 0.4 0
v 0.6 0.5 0
v 0.8 0.1 0
v 0.8 0.2 0
v 0.8 0.3 0
v 0.8 0.4 0
v 1 0 0
v 1 0.1 0
v 1 0.2 0
v 1 0.3 0
v 1.1 0.3 0
v 1.1 0.4 0
v 1.5 0.2 0
v 1.5 0.3 0
v 2 0.1 0
v 2 0.2 0
v -2 0.1 -0.1
v -2 0.3 -0.1
v -1.9 0.1 -0.1
v -1.9 0.2 -0.1
v -1.9 0.3 -0.1
v -1.9 0.4 -0.1
v -1.8 0 -0.1
v -1.8 0.1 -0.1
v -1.8 0.2 -0.1
v -1.8 0.3 -0.1
v -1.7 0.3 -0.1
v -1.7 0.4 -0.1
v -1.7 0.5 -0.1
v -1.6 0.4 -0.1
v -1.6 0.5 -0.1
v -1.6 0.6 -0.1
v -1.2 0 -0.1
v -1.2 0.1 -0.1
v -1.2 0.5 -0.1
v -1.2 0.6 -0.1
v -0.8 0.5 -0.1
v -0.8 0.6 -0.1
v -0.6 0.1 -0.1
v -0.6 0.5 -0.1
v -0.0999999 0 -0.1
v -0.0999999 0.1 -0.1
v -0.0999999 0.5 -0.1
v -0.0999999 0.6 -0.1
v 0.2 0.4 -0.1
v 0.2 0.5 -0.1
v 0.6 0 -0.1
v 0.6 0.1 -0.1
v 0.6 0.4 -0.1
v 0.6 0.5 -0.1
v 0.8 0.1 -0.1
v 0.8 0.2 -0.1
v 0.8 0.3 -0.1
v 0.8 0.4 -0.1
v 1 0 -0.1
v 1 0.1 -0.1
v 1 0.2 -0.1
v 1 0.3 -0.1
v 1.1 0.3 -0.1
v 1.1 0.4 -0.1
v 1.5 0.2 -0.1
v 1.5 0.3 -0.1
v 2 0.1 -0.1
v 2 0.2 -0.1
v -1.9 0.1 -0.2
v -1.9 0.2 -0.2
v -1.8 0.2 -0.2
v -1.8 0.3 -0.2
v -1.7 0.3 -0.2
v -1.7 0.4 -0.2
v -1.6 0.4 -0.2
v -1.6 0.5 -0.2
v -1.5 0.2 -0.2
v -1.5 0.3 -0.2
v -1.4 0.1 -0.2
v -1.4 0.2 -0.2
v -1.4 0.3 -0.2
v -1.4 0.4 -0.2
v -1.3 0.4 -0.2
v -1.2 0.4 -0.2
v -1.2 0.5 -0.2
v -0.6 0.4 -0.2
v -0.6 0.5 -0.2
v 0.2 0.1 -0.2
v 0.2 0.2 -0.2
v 0.2 0.3 -0.2
v 0.2 0.4 -0.2
v 0.2 0.5 -0.2
v 0.3 0.2 -0.2
v 0.3 0.3 -0.2
v 0.6 0.1 -0.2
v 0.6 0.2 -0.2
v 0.6 0.3 -0.2
v 0.6 0.4 -0.2
v 0.7 0.2 -0.2
v 0.7 0.3 -0.2
v 0.8 0.1 -0.2
v 0.8 0.2 -0.2
v 0.8 0.3 -0.2
v 0.8 0.4 -0.2
v 1 0.2 -0.2
v 1 0.3 -0.2
v -1.5 0.2 -0.3
v -1.5 0.3 -0.3
v -1.4 0.1 -0.3
v -1.4 0.2 -0.3
v -1.4 0.3 -0.3
v -1.4 0.4 -0.3
v -1.3 0.2 -0.3
v -1.3 0.3 -0.3
v -1.3 0.4 -0.3
v -1.2 0.1 -0.3
v -1.2 0.2 -0.3
v -0.8 0.2 -0.3
v -0.8 0.3 -0.3
v -0.6 0.1 -0.3
v -0.6 0.2 -0.3
v -0.6 0.3 -0.3
v -0.6 0.4 -0.3
v -0.4 0.2 -0.3
v -0.4 0.3 -0.3
v 0.2 0.1 -0.3
v 0.2 0.2 -0.3
v 0.2 0.3 -0.3
v 0.2 0.4 -0.3
v 0.3 0.2 -0.3
v 0.3 0.3 -0.3
v -1.3 0.2 -0.4
v -1.3 0.3 -0.4
v -0.8 0.2 -0.4
v -0.8 0.3 -0.4
v -0.4 0.2 -0.4
v -0.4 0.3 -0.4
v -1.8 0 0
v -1.2 0 0
v -0.0999999 0 0
v 0.6 0 0
v 1 0 0
v -1.8 0 -0.1
v -1.2 0 -0.1
v -0.0999999 0 -0.1
v 0.6 0 -0.1
v 1 0 -0.1
v -1.4 0.1 0.2
v -1.2 0.1 0.2
v -0.5 0.1 0.2
v 0.2 0.1 0.2
v -1.9 0.1 0.1
v -1.4 0.1 0.1
v -1.3 0.1 0.1
v -1.2 0.1 0.1
v -0.5 0.1 0.1
v -0.2 0.1 0.1
v 0.2 0.1 0.1
v 0.8 0.1 0.1
v -2 0.1 0
v -1.9 0.1 0
v -1.8 0.1 0
v -1.3 0.1 0
v -1.2 0.1 0
v -0.2 0.1 0
v -0.0999999 0.1 0
v 0.6 0.1 0
v 0.8 0.1 0
v 1 0.1 0
v 2 0.1 0
v -2 0.1 -0.1
v -1.9 0.1 -0.1
v -1.8 0.1 -0.1
v -1.2 0.1 -0.1
v -0.6 0.1 -0.1
v -0.0999999 0.1 -0.1
v 0.6 0.1 -0.1
v 0.8 0.1 -0.1
v 1 0.1 -0.1
v 2 0.1 -0.1
v -1.9 0.1 -0.2
v -1.4 0.1 -0.2
v 0.2 0.1 -0.2
v 0.6 0.1 -0.2
v 0.8 0.1 -0.2
v -1.4 0.1 -0.3
v -1.2 0.1 -0.3
v -0.6 0.1 -0.3
v 0.2 0.1 -0.3
v -1.3 0.2 0.3
v -1.2 0.2 0.3
v -0.6 0.2 0.3
v -0.4 0.2 0.3
v -1.5 0.2 0.2
v -1.4 0.2 0.2
v -1.3 0.2 0.2
v -1.2 0.2 0.2
v -0.6 0.2 0.2
v -0.5 0.2 0.2
v -0.4 0.2 0.2
v 0.2 0.2 0.2
v 0.3 0.2 0.2
v -1.5 0.2 0.1
v -1.4 0.2 0.1
v 0.2 0.2 0.1
v 0.3 0.2 0.1
v 0.8 0.2 0.1
v 1 0.2 0.1
v 0.8 0.2 0
v 1 0.2 0
v 0.8 0.2 -0.1
v 1 0.2 -0.1
v -1.5 0.2 -0.2
v -1.4 0.2 -0.2
v 0.2 0.2 -0.2
v 0.3 0.2 -0.2
v 0.8 0.2 -0.2
v 1 0.2 -0.2
v -1.5 0.2 -0.3
v -1.4 0.2 -0.3
v -1.3 0.2 -0.3
v -1.2 0.2 -0.3
v -0.8 0.2 -0.3
v -0.6 0.2 -0.3
v -0.4 0.2 -0.3
v 0.2 0.2 -0.3
v 0.3 0.2 -0.3
v -1.3 0.2 -0.4
v -0.8 0.2 -0.4
v -0.4 0.2 -0.4
v -1.9 0.2 0.1
v -1.8 0.2 0.1
v -1.9 0.2 0
v -1.8 0.2 0
v 1.5 0.2 0
v 2 0.2 0
v -1.9 0.2 -0.1
v -1.8 0.2 -0.1
v 1.5 0.2 -0.1
v 2 0.2 -0.1
v -1.9 0.2 -0.2
v -1.8 0.2 -0.2
v -1.3 0.3 0.3
v -1.2 0.3 0.3
v -0.6 0.3 0.3
v -0.4 0.3 0.3
v -1.5 0.3 0.2
v -1.4 0.3 0.2
v -1.3 0.3 0.2
v -1.2 0.3 0.2
v -0.8 0.3 0.2
v -0.6 0.3 0.2
v -0.4 0.3 0.2
v 0.2 0.3 0.2
v 0.3 0.3 0.2
v -1.8 0.3 0.1
v -1.7 0.3 0.1
v -1.5 0.3 0.1
v -1.4 0.3 0.1
v 0.2 0.3 0.1
v 0.3 0.3 0.1
v 0.8 0.3 0.1
v 1 0.3 0.1
v -2 0.3 0
v -1.9 0.3 0
v -1.8 0.3 0
v -1.7 0.3 0
v 0.8 0.3 0
v 1 0.3 0
v 1.1 0.3 0
v 1.5 0.3 0
v -2 0.3 -0.1
v -1.9 0.3 -0.1
v -1.8 0.3 -0.1
v -1.7 0.3 -0.1
v 0.8 0.3 -0.1
v 1 0.3 -0.1
v 1.1 0.3 -0.1
v 1.5 0.3 -0.1
v -1.8 0.3 -0.2
v -1.7 0.3 -0.2
v -1.5 0.3 -0.2
v -1.4 0.3 -0.2
v 0.2 0.3 -0.2
v 0.3 0.3 -0.2
v 0.8 0.3 -0.2
v 1 0.3 -0.2
v -1.5 0.3 -0.3
v -1.4 0.3 -0.3
v -1.3 0.3 -0.3
v -0.8 0.3 -0.3
v -0.6 0.3 -0.3
v -0.4 0.3 -0.3
v 0.2 0.3 -0.3
v 0.3 0.3 -0.3
v -1.3 0.3 -0.4
v -0.8 0.3 -0.4
v -0.4 0.3 -0.4
v -1.4 0.4 0.2
v -1.2 0.4 0.2
v -0.8 0.4 0.2
v 0.2 0.4 0.2
v -1.7 0.4 0.1
v -1.6 0.4 0.1
v -1.4 0.4 0.1
v -1.2 0.4 0.1
v -0.8 0.4 0.1
v 0.2 0.4 0.1
v 0.5 0.4 0.1
v 0.8 0.4 0.1
v -1.9 0.4 0
v -1.7 0.4 0
v -1.6 0.4 0
v 0.2 0.4 0
v 0.5 0.4 0
v 0.6 0.4 0
v 0.8 0.4 0
v 1.1 0.4 0
v -1.9 0.4 -0.1
v -1.7 0.4 -0.1
v -1.6 0.4 -0.1
v 0.2 0.4 -0.1
v 0.6 0.4 -0.1
v 0.8 0.4 -0.1
v 1.1 0.4 -0.1
v -1.7 0.4 -0.2
v -1.6 0.4 -0.2
v -1.4 0.4 -0.2
v -1.3 0.4 -0.2
v -1.2 0.4 -0.2
v -0.6 0.4 -0.2
v 0.2 0.4 -0.2
v 0.6 0.4 -0.2
v 0.8 0.4 -0.2
v -1.4 0.4 -0.3
v -1.3 0.4 -0.3
v -0.6 0.4 -0.3
v 0.2 0.4 -0.3
v -1.6 0.5 0.1
v -1.2 0.5 0.1
v -0.8 0.5 0.1
v 0.2 0.5 0.1
v -1.7 0.5 0
v -1.6 0.5 0
v -1.2 0.5 0
v -0.8 0.5 0
v -0.0999999 0.5 0
v 0.2 0.5 0
v 0.6 0.5 0
v -1.7 0.5 -0.1
v -1.6 0.5 -0.1
v -1.2 0.5 -0.1
v -0.8 0.5 -0.1
v -0.6 0.5 -0.1
v -0.0999999 0.5 -0.1
v 0.2 0.5 -0.1
v 0.6 0.5 -0.1
v -1.6 0.5 -0.2
v -1.2 0.5 -0.2
v -0.6 0.5 -0.2
v 0.2 0.5 -0.2
v -1.6 0.6 0
v -1.2 0.6 0
v -0.8 0.6 0
v -0.0999999 0.6 0
v -1.6 0.6 -0.1
v -1.2 0.6 -0.1
v -0.8 0.6 -0.1
v -0.0999999 0.6 -0.1

# faces
f 3/2/1 2/2/1 1/2/1
f 4/2/1 2/2/1 3/2/1
f 9/2/1 6/2/1 5/2/1
f 10/2/1 6/2/1 9/2/1
f 11/2/1 8/2/1 7/2/1
f 12/2/1 8/2/1 11/2/1
f 15/2/1 14/2/1 13/2/1
f 16/2/1 14/2/1 15/2/1
f 19/2/1 18/2/1 17/2/1
f 20/2/1 18/2/1 19/2/1
f 25/2/1 22/2/1 21/2/1
f 26/2/1 22/2/1 25/2/1
f 27/2/1 24/2/1 23/2/1
f 28/2/1 24/2/1 27/2/1
f 33/2/1 30/2/1 29/2/1
f 34/2/1 30/2/1 33/2/1
f 35/2/1 32/2/1 31/2/1
f 36/2/1 32/2/1 35/2/1
f 37/2/1 35/2/1 34/2/1
f 38/2/1 35/2/1 37/2/1
f 43/2/1 40/2/1 39/2/1
f 44/2/1 40/2/1 43/2/1
f 45/2/1 42/2/1 41/2/1
f 46/2/1 42/2/1 45/2/1
f 47/2/1 45/2/1 44/2/1
f 48/2/1 45/2/1 47/2/1
f 53/2/1 50/2/1 49/2/1
f 54/2/1 50/2/1 53/2/1
f 55/2/1 52/2/1 51/2/1
f 56/2/1 52/2/1 55/2/1
f 61/2/1 58/2/1 57/2/1
f 62/2/1 58/2/1 61/2/1
f 63/2/1 60/2/1 59/2/1
f 64/2/1 60/2/1 63/2/1
f 69/2/1 66/2/1 65/2/1
f 70/2/1 66/2/1 69/2/1
f 71/2/1 68/2/1 67/2/1
f 72/2/1 68/2/1 71/2/1
f 77/2/1 74/2/1 73/2/1
f 78/2/1 74/2/1 77/2/1
f 79/3/1 76/3/1 75/3/1
f 80/3/1 76/3/1 79/3/1
f 81/1/2 82/1/2 85/1/2
f 85/1/2 82/1/2 86/1/2
f 83/1/2 84/1/2 87/1/2
f 87/1/2 84/1/2 88/1/2
f 89/1/2 90/1/2 91/1/2
f 91/1/2 90/1/2 92/1/2
f 93/1/2 94/1/2 97/1/2
f 97/1/2 94/1/2 98/1/2
f 95/1/2 96/1/2 99/1/2
f 99/1/2 96/1/2 100/1/2
f 101/1/2 102/1/2 105/1/2
f 105/1/2 102/1/2 106/1/2
f 103/1/2 104/1/2 109/1/2
f 109/1/2 104/1/2 110/1/2
f 106/1/2 107/1/2 111/1/2
f 111/1/2 107/1/2 112/1/2
f 108/1/2 109/1/2 113/1/2
f 113/1/2 109/1/2 114/1/2
f 115/1/2 116/1/2 119/1/2
f 119/1/2 116/1/2 120/1/2
f 117/1/2 118/1/2 121/1/2
f 121/1/2 118/1/2 122/1/2
f 123/1/2 124/1/2 125/1/2
f 125/1/2 124/1/2 126/1/2
f 127/1/2 128/1/2 131/1/2
f 131/1/2 128/1/2 132/1/2
f 129/5/2 130/5/2 133/5/2
f 133/5/2 130/5/2 134/5/2
f 135/5/2 136/5/2 139/5/2
f 139/5/2 136/5/2 140/5/2
f 137/5/2 138/5/2 141/5/2
f 141/5/2 138/5/2 142/5/2
f 143/5/2 144/5/2 145/5/2
f 145/5/2 144/5/2 146/5/2
f 147/5/2 148/5/2 151/5/2
f 151/5/2 148/5/2 152/5/2
f 149/5/2 150/5/2 153/5/2
f 153/5/2 150/5/2 154/5/2
f 155/5/2 156/5/2 157/5/2
f 157/5/2 156/5/2 158/5/2
f 159/5/2 160/5/2 161/5/2
f 161/5/2 160/5/2 162/5/2
f 163/5/2 164/5/2 165/5/2
f 165/5/2 164/5/2 166/5/2
f 169/2/3 168/2/3 167/2/3
f 170/2/3 168/2/3 169/2/3
f 171/3/3 170/3/3 169/3/3
f 172/3/3 170/3/3 171/3/3
f 173/1/3 172/1/3 171/1/3
f 174/1/3 172/1/3 173/1/3
f 178/2/3 176/2/3 175/2/3
f 179/2/3 176/2/3 178/2/3
f 181/2/3 178/2/3 177/2/3
f 181/2/3 180/2/3 179/2/3
f 181/2/3 179/2/3 178/2/3
f 182/2/3 180/2/3 181/2/3
f 183/2/3 181/2/3 177/2/3
f 184/2/3 181/2/3 183/2/3
f 185/2/3 180/2/3 182/2/3
f 186/2/3 180/2/3 185/2/3
f 187/3/3 186/3/3 185/3/3
f 188/3/3 186/3/3 187/3/3
f 189/3/3 184/3/3 183/3/3
f 190/1/3 188/1/3 187/1/3
f 191/3/3 189/3/3 183/3/3
f 192/3/3 189/3/3 191/3/3
f 193/1/3 192/1/3 191/1/3
f 194/1/3 188/1/3 190/1/3
f 195/1/3 193/1/3 191/1/3
f 195/1/3 194/1/3 193/1/3
f 196/1/3 194/1/3 195/1/3
f 197/1/3 188/1/3 194/1/3
f 197/1/3 194/1/3 196/1/3
f 198/1/3 188/1/3 197/1/3
f 199/1/3 197/1/3 196/1/3
f 200/1/3 197/1/3 199/1/3
f 203/2/3 202/2/3 201/2/3
f 205/2/3 204/2/3 203/2/3
f 207/2/3 206/2/3 205/2/3
f 209/2/3 203/2/3 201/2/3
f 209/2/3 208/2/3 207/2/3
f 209/2/3 207/2/3 205/2/3
f 209/2/3 205/2/3 203/2/3
f 210/2/3 208/2/3 209/2/3
f 211/2/3 209/2/3 201/2/3
f 212/2/3 209/2/3 211/2/3
f 213/2/3 208/2/3 210/2/3
f 214/2/3 208/2/3 213/2/3
f 215/2/3 208/2/3 214/2/3
f 216/2/3 208/2/3 215/2/3
f 217/3/3 216/3/3 215/3/3
f 218/3/3 216/3/3 217/3/3
f 222/1/3 218/1/3 217/1/3
f 223/1/3 218/1/3 222/1/3
f 224/1/3 220/1/3 219/1/3
f 225/1/3 222/1/3 221/1/3
f 226/1/3 222/1/3 225/1/3
f 226/1/3 225/1/3 224/1/3
f 227/1/3 222/1/3 226/1/3
f 228/1/3 224/1/3 219/1/3
f 228/1/3 226/1/3 224/1/3
f 229/1/3 226/1/3 228/1/3
f 230/5/3 227/5/3 226/5/3
f 230/1/3 226/1/3 229/1/3
f 231/5/3 227/5/3 230/5/3
f 232/5/3 230/5/3 229/5/3
f 233/5/3 230/5/3 232/5/3
f 236/2/3 235/2/3 234/2/3
f 237/2/3 235/2/3 236/2/3
f 238/2/3 235/2/3 237/2/3
f 242/2/3 239/2/3 238/2/3
f 242/2/3 238/2/3 237/2/3
f 243/2/3 239/2/3 242/2/3
f 244/2/3 239/2/3 243/2/3
f 245/2/3 239/2/3 244/2/3
f 247/2/3 246/2/3 245/2/3
f 248/2/3 246/2/3 247/2/3
f 250/2/3 241/2/3 240/2/3
f 251/2/3 250/2/3 240/2/3
f 252/2/3 250/2/3 251/2/3
f 253/2/3 249/2/3 248/2/3
f 254/2/3 249/2/3 253/2/3
f 255/3/3 254/3/3 253/3/3
f 256/3/3 254/3/3 255/3/3
f 257/3/3 252/3/3 251/3/3
f 258/3/3 257/3/3 251/3/3
f 259/3/3 257/3/3 258/3/3
f 260/1/3 256/1/3 255/1/3
f 261/1/3 256/1/3 260/1/3
f 264/1/3 263/1/3 262/1/3
f 265/1/3 259/1/3 258/1/3
f 266/1/3 259/1/3 265/1/3
f 267/1/3 263/1/3 264/1/3
f 268/1/3 263/1/3 267/1/3
f 269/5/3 266/5/3 265/5/3
f 273/5/3 269/5/3 265/5/3
f 273/5/3 270/5/3 269/5/3
f 274/5/3 270/5/3 273/5/3
f 275/5/3 270/5/3 274/5/3
f 276/5/3 272/5/3 271/5/3
f 277/5/3 275/5/3 274/5/3
f 277/5/3 276/5/3 275/5/3
f 277/5/3 272/5/3 276/5/3
f 278/5/3 272/5/3 277/5/3
f 279/5/3 277/5/3 274/5/3
f 280/5/3 277/5/3 279/5/3
f 281/5/3 279/5/3 274/5/3
f 282/5/3 279/5/3 281/5/3
f 283/2/4 284/2/4 285/2/4
f 285/2/4 284/2/4 286/2/4
f 286/2/4 284/2/4 287/2/4
f 287/2/4 288/2/4 291/2/4
f 286/2/4 287/2/4 291/2/4
f 291/2/4 288/2/4 292/2/4
f 292/2/4 288/2/4 293/2/4
f 293/2/4 288/2/4 294/2/4
f 294/2/4 295/2/4 296/2/4
f 296/2/4 295/2/4 297/2/4
f 289/2/4 290/2/4 299/2/4
f 299/2/4 290/2/4 300/2/4
f 297/2/4 298/2/4 301/2/4
f 301/2/4 298/2/4 302/2/4
f 301/3/4 302/3/4 303/3/4
f 303/3/4 302/3/4 304/3/4
f 299/3/4 300/3/4 305/3/4
f 303/1/4 304/1/4 306/1/4
f 299/3/4 305/3/4 307/3/4
f 307/3/4 305/3/4 308/3/4
f 306/1/4 304/1/4 309/1/4
f 309/1/4 304/1/4 310/1/4
f 307/1/4 308/1/4 313/1/4
f 313/1/4 308/1/4 314/1/4
f 311/1/4 312/1/4 315/1/4
f 315/1/4 312/1/4 316/1/4
f 313/5/4 314/5/4 317/5/4
f 313/5/4 317/5/4 321/5/4
f 317/5/4 318/5/4 321/5/4
f 321/5/4 318/5/4 322/5/4
f 322/5/4 318/5/4 323/5/4
f 319/5/4 320/5/4 324/5/4
f 322/5/4 323/5/4 325/5/4
f 323/5/4 324/5/4 325/5/4
f 324/5/4 320/5/4 325/5/4
f 325/5/4 320/5/4 326/5/4
f 322/5/4 325/5/4 327/5/4
f 327/5/4 325/5/4 328/5/4
f 322/5/4 327/5/4 329/5/4
f 329/5/4 327/5/4 330/5/4
f 331/2/4 332/2/4 333/2/4
f 333/2/4 334/2/4 335/2/4
f 335/2/4 336/2/4 337/2/4
f 331/2/4 333/2/4 339/2/4
f 337/2/4 338/2/4 339/2/4
f 335/2/4 337/2/4 339/2/4
f 333/2/4 335/2/4 339/2/4
f 339/2/4 338/2/4 340/2/4
f 331/2/4 339/2/4 341/2/4
f 341/2/4 339/2/4 342/2/4
f 340/2/4 338/2/4 343/2/4
f 343/2/4 338/2/4 344/2/4
f 344/2/4 338/2/4 345/2/4
f 345/2/4 338/2/4 346/2/4
f 346/2/4 338/2/4 347/2/4
f 346/3/4 347/3/4 348/3/4
f 348/3/4 347/3/4 349/3/4
f 348/1/4 349/1/4 353/1/4
f 353/1/4 349/1/4 354/1/4
f 350/1/4 351/1/4 355/1/4
f 352/1/4 353/1/4 356/1/4
f 350/1/4 355/1/4 357/1/4
f 355/1/4 356/1/4 357/1/4
f 357/1/4 356/1/4 358/1/4
f 356/1/4 353/1/4 359/1/4
f 358/1/4 356/1/4 359/1/4
f 359/1/4 353/1/4 360/1/4
f 357/5/4 358/5/4 361/5/4
f 358/1/4 359/1/4 361/1/4
f 359/5/4 360/5/4 362/5/4
f 361/1/4 359/1/4 362/1/4
f 357/5/4 361/5/4 363/5/4
f 361/5/4 362/5/4 363/5/4
f 363/5/4 362/5/4 364/5/4
f 362/5/4 360/5/4 365/5/4
f 364/5/4 362/5/4 365/5/4
f 365/5/4 360/5/4 366/5/4
f 364/5/4 365/5/4 367/5/4
f 367/5/4 365/5/4 368/5/4
f 369/2/4 370/2/4 372/2/4
f 372/2/4 370/2/4 373/2/4
f 371/2/4 372/2/4 375/2/4
f 373/2/4 374/2/4 375/2/4
f 372/2/4 373/2/4 375/2/4
f 375/2/4 374/2/4 376/2/4
f 376/2/4 374/2/4 377/2/4
f 371/2/4 375/2/4 378/2/4
f 378/2/4 375/2/4 379/2/4
f 378/3/4 379/3/4 380/3/4
f 376/3/4 377/3/4 381/3/4
f 378/3/4 380/3/4 382/3/4
f 382/3/4 380/3/4 383/3/4
f 381/3/4 377/3/4 384/3/4
f 384/3/4 377/3/4 385/3/4
f 382/1/4 383/1/4 386/1/4
f 384/1/4 385/1/4 387/1/4
f 382/1/4 386/1/4 388/1/4
f 386/1/4 387/1/4 388/1/4
f 388/1/4 387/1/4 389/1/4
f 387/1/4 385/1/4 390/1/4
f 389/1/4 387/1/4 390/1/4
f 390/1/4 385/1/4 391/1/4
f 389/1/4 390/1/4 392/1/4
f 392/1/4 390/1/4 393/1/4
f 394/3/4 395/3/4 396/3/4
f 396/3/4 395/3/4 397/3/4
f 396/1/4 397/1/4 398/1/4
f 398/1/4 397/1/4 399/1/4
f 405/2/5 401/2/5 400/2/5
f 406/3/5 402/3/5 401/3/5
f 406/2/5 401/2/5 405/2/5
f 407/1/5 403/1/5 402/1/5
f 407/3/5 402/3/5 406/3/5
f 408/5/5 404/5/5 403/5/5
f 408/1/5 403/1/5 407/1/5
f 409/5/5 404/5/5 408/5/5
f 415/2/5 411/2/5 410/2/5
f 416/2/5 411/2/5 415/2/5
f 417/3/5 412/3/5 411/3/5
f 417/2/5 411/2/5 416/2/5
f 418/1/5 413/1/5 412/1/5
f 418/3/5 412/3/5 417/3/5
f 419/1/5 413/1/5 418/1/5
f 420/1/5 413/1/5 419/1/5
f 423/2/5 416/2/5 415/2/5
f 423/2/5 415/2/5 414/2/5
f 424/2/5 416/2/5 423/2/5
f 425/3/5 417/3/5 416/3/5
f 425/2/5 416/2/5 424/2/5
f 425/3/5 418/3/5 417/3/5
f 425/3/5 419/3/5 418/3/5
f 426/3/5 419/3/5 425/3/5
f 427/1/5 421/1/5 420/1/5
f 427/3/5 419/3/5 426/3/5
f 427/1/5 420/1/5 419/1/5
f 428/1/5 421/1/5 427/1/5
f 429/1/5 421/1/5 428/1/5
f 430/1/5 421/1/5 429/1/5
f 433/2/5 424/2/5 423/2/5
f 433/2/5 423/2/5 422/2/5
f 434/2/5 424/2/5 433/2/5
f 435/2/5 424/2/5 434/2/5
f 441/5/5 432/5/5 431/5/5
f 442/5/5 432/5/5 441/5/5
f 443/2/5 435/2/5 434/2/5
f 443/2/5 436/2/5 435/2/5
f 444/2/5 436/2/5 443/2/5
f 445/1/5 439/1/5 438/1/5
f 445/1/5 438/1/5 437/1/5
f 446/5/5 440/5/5 439/5/5
f 446/1/5 439/1/5 445/1/5
f 447/5/5 440/5/5 446/5/5
f 448/2/5 436/2/5 444/2/5
f 449/3/5 437/3/5 436/3/5
f 449/2/5 436/2/5 448/2/5
f 450/1/5 445/1/5 437/1/5
f 450/3/5 437/3/5 449/3/5
f 451/1/5 445/1/5 450/1/5
f 458/2/5 453/2/5 452/2/5
f 459/3/5 454/3/5 453/3/5
f 459/2/5 453/2/5 458/2/5
f 460/1/5 455/1/5 454/1/5
f 460/3/5 454/3/5 459/3/5
f 461/1/5 455/1/5 460/1/5
f 462/1/5 455/1/5 461/1/5
f 465/2/5 457/2/5 456/2/5
f 466/2/5 457/2/5 465/2/5
f 467/1/5 464/1/5 463/1/5
f 468/1/5 464/1/5 467/1/5
f 471/5/5 470/5/5 469/5/5
f 472/5/5 470/5/5 471/5/5
f 479/5/5 474/5/5 473/5/5
f 480/5/5 474/5/5 479/5/5
f 481/2/5 476/2/5 475/2/5
f 482/2/5 476/2/5 481/2/5
f 488/1/5 478/1/5 477/1/5
f 489/1/5 478/1/5 488/1/5
f 490/3/5 484/3/5 483/3/5
f 490/3/5 485/3/5 484/3/5
f 491/1/5 487/1/5 486/1/5
f 491/3/5 485/3/5 490/3/5
f 491/1/5 486/1/5 485/1/5
f 492/1/5 487/1/5 491/1/5
f 493/2/6 494/2/6 495/2/6
f 495/2/6 494/2/6 496/2/6
f 497/5/6 498/5/6 501/5/6
f 501/5/6 498/5/6 502/5/6
f 499/2/6 500/2/6 503/2/6
f 503/2/6 500/2/6 504/2/6
f 505/2/6 506/2/6 511/2/6
f 506/3/6 507/3/6 512/3/6
f 511/2/6 506/2/6 512/2/6
f 512/3/6 507/3/6 513/3/6
f 507/1/6 508/1/6 514/1/6
f 513/3/6 507/3/6 514/3/6
f 514/1/6 508/1/6 515/1/6
f 509/2/6 510/2/6 520/2/6
f 520/2/6 510/2/6 521/2/6
f 516/1/6 517/1/6 522/1/6
f 522/1/6 517/1/6 523/1/6
f 518/2/6 519/2/6 528/2/6
f 528/2/6 519/2/6 529/2/6
f 524/5/6 525/5/6 530/5/6
f 530/5/6 525/5/6 531/5/6
f 526/2/6 527/2/6 534/2/6
f 534/2/6 527/2/6 535/2/6
f 532/5/6 533/5/6 540/5/6
f 540/5/6 533/5/6 541/5/6
f 536/2/6 537/2/6 542/2/6
f 542/2/6 537/2/6 543/2/6
f 538/5/6 539/5/6 548/5/6
f 548/5/6 539/5/6 549/5/6
f 544/2/6 545/2/6 550/2/6
f 550/2/6 545/2/6 551/2/6
f 546/1/6 547/1/6 556/1/6
f 556/1/6 547/1/6 557/1/6
f 552/3/6 553/3/6 558/3/6
f 554/1/6 555/1/6 559/1/6
f 558/3/6 553/3/6 559/3/6
f 553/1/6 554/1/6 559/1/6
f 559/1/6 555/1/6 560/1/6
f 561/2/6 562/2/6 567/2/6
f 562/3/6 563/3/6 568/3/6
f 567/2/6 562/2/6 568/2/6
f 563/1/6 564/1/6 569/1/6
f 568/3/6 563/3/6 569/3/6
f 569/1/6 564/1/6 570/1/6
f 565/2/6 566/2/6 574/2/6
f 574/2/6 566/2/6 575/2/6
f 570/1/6 571/1/6 576/1/6
f 571/5/6 572/5/6 577/5/6
f 576/1/6 571/1/6 577/1/6
f 577/5/6 572/5/6 578/5/6
f 578/5/6 572/5/6 579/5/6
f 573/2/6 574/2/6 581/2/6
f 581/2/6 574/2/6 582/2/6
f 579/5/6 580/5/6 585/5/6
f 578/5/6 579/5/6 585/5/6
f 585/5/6 580/5/6 586/5/6
f 586/5/6 580/5/6 587/5/6
f 582/2/6 583/2/6 588/2/6
f 588/2/6 583/2/6 589/2/6
f 584/1/6 585/1/6 594/1/6
f 585/5/6 586/5/6 595/5/6
f 594/1/6 585/1/6 595/1/6
f 595/5/6 586/5/6 596/5/6
f 590/2/6 591/2/6 597/2/6
f 592/3/6 593/3/6 598/3/6
f 597/2/6 591/2/6 598/2/6
f 591/3/6 592/3/6 598/3/6
f 593/1/6 594/1/6 599/1/6
f 598/3/6 593/3/6 599/3/6
f 599/1/6 594/1/6 600/1/6
f 601/2/6 602/2/6 606/2/6
f 602/3/6 603/3/6 607/3/6
f 606/2/6 602/2/6 607/2/6
f 603/1/6 604/1/6 608/1/6
f 607/3/6 603/3/6 608/3/6
f 608/1/6 604/1/6 609/1/6
f 609/1/6 604/1/6 610/1/6
f 605/2/6 606/2/6 612/2/6
f 612/2/6 606/2/6 613/2/6
f 610/1/6 611/1/6 617/1/6
f 609/1/6 610/1/6 617/1/6
f 617/1/6 611/1/6 618/1/6
f 618/1/6 611/1/6 619/1/6
f 613/2/6 614/2/6 620/2/6
f 615/3/6 616/3/6 621/3/6
f 620/2/6 614/2/6 621/2/6
f 614/3/6 615/3/6 621/3/6
f 616/1/6 617/1/6 622/1/6
f 621/3/6 616/3/6 622/3/6
f 617/1/6 618/1/6 622/1/6
f 622/1/6 618/1/6 623/1/6
f 624/2/6 625/2/6 628/2/6
f 625/3/6 626/3/6 629/3/6
f 628/2/6 625/2/6 629/2/6
f 626/1/6 627/1/6 630/1/6
f 629/3/6 626/3/6 630/3/6
f 630/1/6 627/1/6 631/1/6
